<svg xmlns="http://www.w3.org/2000/svg" version="1.1" xmlns:xlink="http://www.w3.org/1999/xlink" viewBox="0 0 200 200"><rect width="200" height="200" fill="url('#gradient')"></rect><defs><linearGradient id="gradient" gradientTransform="rotate(45 0.5 0.5)"><stop offset="0%" stop-color="#000000"></stop><stop offset="100%" stop-color="#000000"></stop></linearGradient></defs><g><g fill="#005c11" transform="matrix(5.211195928753181,0,0,5.211195928753181,4.400885510080641,136.765650616954)" stroke="#000000" stroke-width="0.2"><path d="M1.07-14.22L5.58-14.22L8.75-4.33L11.91-14.22L16.43-14.22L16.43 0L12.99 0L12.99-3.32L13.32-10.12L9.88 0L7.62 0L4.17-10.13L4.50-3.32L4.50 0L1.07 0L1.07-14.22ZM25.92-10.57L27.58-4.34L28.64-10.57L31.80-10.57L29.31 0L26.52 0L24.78-6.27L23.02 0L20.23 0L17.74-10.57L20.90-10.57L21.94-4.19L23.62-10.57L25.92-10.57ZM33.80-3.19L33.80-3.19Q34.58-3.19 35.10-2.73Q35.62-2.27 35.62-1.54Q35.62-0.82 35.10-0.36Q34.58 0.11 33.80 0.11L33.80 0.11Q33.01 0.11 32.50-0.36Q31.98-0.83 31.98-1.54Q31.98-2.26 32.50-2.72Q33.01-3.19 33.80-3.19Z"></path></g></g></svg>